<svg width="68" height="68" viewBox="0 0 68 68" fill="none" xmlns="http://www.w3.org/2000/svg">
<circle cx="34.01" cy="33.7124" r="33.4917" fill="#E6F1FF"/>
<mask id="mask0_192_238" style="mask-type:alpha" maskUnits="userSpaceOnUse" x="0" y="0" width="68" height="68">
<circle cx="34.01" cy="33.7124" r="33.4917" fill="#CBDFF9"/>
</mask>
<g mask="url(#mask0_192_238)">
<path d="M51.1848 12.5082C42.9278 12.3893 32.728 10.3077 25.0856 14.4213C18.5732 17.9303 16.6998 25.424 14.1325 31.8175C11.129 39.3112 9.94946 47.0428 18.8606 53.0101C31.9251 61.7627 58.8272 61.0688 75.3015 58.0753C86.7106 56.0036 91.5875 53.2182 94.6008 45.7741C97.0789 39.6482 96.841 28.9033 89.833 21.3302C80.9912 11.7648 66.2416 12.7263 51.1848 12.5182V12.5082Z" fill="#5194F9"/>
<path d="M28.7332 36.3081C33.5342 36.3081 37.4263 32.4161 37.4263 27.615C37.4263 22.8139 33.5342 18.9219 28.7332 18.9219C23.9321 18.9219 20.04 22.8139 20.04 27.615C20.04 32.4161 23.9321 36.3081 28.7332 36.3081Z" fill="white"/>
<path d="M45.7031 36.3081C50.5042 36.3081 54.3963 32.4161 54.3963 27.615C54.3963 22.8139 50.5042 18.9219 45.7031 18.9219C40.9021 18.9219 37.01 22.8139 37.01 27.615C37.01 32.4161 40.9021 36.3081 45.7031 36.3081Z" fill="white"/>
<path d="M27.2267 32.0559C29.2358 32.0559 30.8645 30.4272 30.8645 28.4181C30.8645 26.409 29.2358 24.7803 27.2267 24.7803C25.2176 24.7803 23.5889 26.409 23.5889 28.4181C23.5889 30.4272 25.2176 32.0559 27.2267 32.0559Z" fill="#352210"/>
<path d="M47.9631 26.7519C47.9631 26.7519 44.0874 24.9082 41.1831 28.9029" stroke="#352210" stroke-width="3" stroke-miterlimit="10" stroke-linecap="round"/>
<path d="M37.2976 37.7352C37.2976 37.7352 41.3815 39.0535 43.7307 34.7119" stroke="#352210" stroke-width="3" stroke-miterlimit="10" stroke-linecap="round"/>
</g>
</svg>
